<svg width="365" height="205" viewBox="0 0 365 205" fill="none" xmlns="http://www.w3.org/2000/svg">
<path d="M71.7006 18.8255C95.9719 44.0696 55.4485 67.0446 30.9584 58.292C40.2648 66.2917 38.1143 96.8145 2.37756 96.3173C38.131 106.713 32.3955 139.488 18.219 156.011C46.8089 141.156 79.7771 160.933 78.0037 186.294C89.9482 165.401 149.375 172.33 153.059 198.503C164.639 188.144 225.303 181.013 235.464 202.525C244.111 186.636 282.184 175.703 307.086 196.512C307.044 171.473 320.067 149.91 362.475 150.501C325.208 131.301 330.734 79.6889 356.34 71.2027C325.515 77.7623 302.381 46.9837 314.301 21.4256C299.358 41.1318 245.371 42.7237 232.426 15.7003C219.083 29.4924 179.005 19.1747 174.306 2.50742C175.423 16.2222 155.786 22.6928 137.101 14.374C131.806 40.2185 78.9807 37.7159 71.7006 18.8255Z" stroke="#34387F" stroke-width="4" stroke-linecap="round" stroke-linejoin="round"/>
</svg>
