<svg width="98" height="16" viewBox="0 0 98 16" fill="none" xmlns="http://www.w3.org/2000/svg">
<path d="M0 0.5H47V15.5H0V0.5Z" fill="#ED1D24"/>
<path d="M2 13.4858V3.51424H4.21533L5.01838 8.64245L5.80759 3.51424H8.06446V13.5H6.26451V8.68519L5.4753 13.4858H4.54763L3.75842 8.72792V13.4858H2Z" fill="#FAFAFA"/>
<path d="M11.9704 3.51424L13.438 13.4858H11.6796L11.4858 11.9473H10.1289L9.9212 13.4858H8.19048L9.64429 3.51424H11.9704ZM11.3058 10.3519L10.8073 6.16382L10.3366 10.3519H11.3058Z" fill="#FAFAFA"/>
<path d="M15.4875 3.51424C15.8106 3.51424 16.1152 3.56648 16.4014 3.67094C16.6967 3.7754 16.9598 3.9416 17.1906 4.16952C17.4213 4.38794 17.6106 4.67284 17.7582 5.02422C17.9152 5.37559 18.0167 5.80294 18.0629 6.30627C18.1275 6.92355 18.109 7.44112 18.0075 7.85897C17.9152 8.26733 17.7998 8.59497 17.6613 8.84188C17.5044 9.14577 17.3152 9.38319 17.0937 9.55413L18.2429 13.4858H16.4706L15.626 10.1382L15.2383 10.2094V13.4858H13.4937L13.5076 3.51424H15.4875ZM15.2383 8.44302C15.4506 8.42403 15.626 8.3718 15.7645 8.28632C15.9029 8.19136 16.0183 8.07265 16.1106 7.9302C16.2029 7.78775 16.2675 7.62631 16.3044 7.44587C16.3414 7.26543 16.3598 7.08025 16.3598 6.89031C16.3598 6.69088 16.3414 6.4962 16.3044 6.30627C16.2675 6.10684 16.2075 5.93115 16.1244 5.7792C16.0414 5.61776 15.926 5.48955 15.7783 5.39459C15.6398 5.29962 15.4598 5.25214 15.2383 5.25214V8.44302Z" fill="#FAFAFA"/>
<path d="M19.568 3.51424L20.3434 9.52564L21.1603 3.51424H22.9049L21.368 13.4858H19.3188L17.7681 3.51424H19.568Z" fill="#FAFAFA"/>
<path d="M23.0144 13.4858V3.51424H26.2681V5.28063H24.8005V7.53134H26.282V9.38319H24.7174V11.6339H26.2958V13.4858H23.0144Z" fill="#FAFAFA"/>
<path d="M28.5568 3.5V11.6909H30.0521V13.5H26.8399V3.51424L28.5568 3.5Z" fill="#FAFAFA"/>
<path d="M30.4775 8.5C30.4775 7.74976 30.5421 7.07075 30.6713 6.46296C30.8005 5.84568 30.9805 5.31861 31.2113 4.88177C31.442 4.44492 31.7236 4.10779 32.0559 3.87037C32.3882 3.63295 32.7528 3.51424 33.1497 3.51424C33.5466 3.51424 33.9066 3.63295 34.2297 3.87037C34.562 4.10779 34.8435 4.44492 35.0743 4.88177C35.305 5.31861 35.485 5.84568 35.6142 6.46296C35.7435 7.07075 35.8081 7.74976 35.8081 8.5C35.8081 9.25024 35.7435 9.934 35.6142 10.5513C35.485 11.1591 35.305 11.6814 35.0743 12.1182C34.8435 12.5551 34.562 12.8922 34.2297 13.1296C33.9066 13.367 33.5466 13.4858 33.1497 13.4858C32.7528 13.4858 32.3882 13.367 32.0559 13.1296C31.7236 12.8922 31.442 12.5551 31.2113 12.1182C30.9805 11.6814 30.8005 11.1591 30.6713 10.5513C30.5421 9.934 30.4775 9.25024 30.4775 8.5ZM32.1943 8.52849C32.1943 9.00332 32.2174 9.43542 32.2636 9.82479C32.3097 10.2142 32.3743 10.5513 32.4574 10.8362C32.5405 11.1116 32.6374 11.3253 32.7482 11.4772C32.8682 11.6292 32.9974 11.7051 33.1358 11.7051C33.2743 11.7051 33.3989 11.6292 33.5097 11.4772C33.6297 11.3253 33.7266 11.1116 33.8004 10.8362C33.8835 10.5513 33.9481 10.2142 33.9943 9.82479C34.0404 9.43542 34.0635 9.00332 34.0635 8.52849C34.0635 8.05366 34.0404 7.62156 33.9943 7.23219C33.9481 6.83333 33.8835 6.4962 33.8004 6.2208C33.7266 5.94539 33.6297 5.73172 33.5097 5.57977C33.3989 5.42783 33.2743 5.35185 33.1358 5.35185C32.9974 5.35185 32.8682 5.42783 32.7482 5.57977C32.6374 5.73172 32.5405 5.94539 32.4574 6.2208C32.3743 6.4962 32.3097 6.83333 32.2636 7.23219C32.2174 7.62156 32.1943 8.05366 32.1943 8.52849Z" fill="#FAFAFA"/>
<path d="M41.5124 8.55698C41.5124 8.88936 41.5078 9.24549 41.4986 9.62536C41.4986 9.99573 41.4755 10.3661 41.4294 10.7365C41.3924 11.0973 41.3232 11.444 41.2217 11.7764C41.1202 12.1087 40.9678 12.4031 40.7648 12.6595C40.5709 12.9065 40.3171 13.1059 40.0033 13.2578C39.6894 13.4098 39.3017 13.4858 38.8402 13.4858C38.2033 13.4858 37.7049 13.3718 37.3449 13.1439C36.9941 12.916 36.731 12.5931 36.5557 12.1752C36.3895 11.7479 36.288 11.235 36.251 10.6368C36.2234 10.0385 36.2095 9.37369 36.2095 8.64245V3.5H37.9125V8.55698C37.9218 9.14577 37.9587 9.66809 38.0233 10.1239C38.051 10.3234 38.0879 10.518 38.1341 10.708C38.1802 10.8884 38.2356 11.0546 38.3002 11.2066C38.3741 11.349 38.4525 11.4677 38.5356 11.5627C38.6279 11.6481 38.7294 11.6909 38.8402 11.6909C38.9787 11.6909 39.0941 11.6481 39.1864 11.5627C39.2879 11.4677 39.371 11.349 39.4356 11.2066C39.5094 11.0546 39.5648 10.8884 39.6017 10.708C39.6479 10.518 39.6848 10.3234 39.7125 10.1239C39.7679 9.66809 39.791 9.14577 39.7817 8.55698V3.51424H41.5124V8.55698Z" fill="#FAFAFA"/>
<path d="M45.9308 3.51424C45.94 3.51424 45.9446 3.60921 45.9446 3.79915C45.9446 3.97958 45.9446 4.17901 45.9446 4.39744C45.9446 4.66334 45.94 4.96249 45.9308 5.29487C45.6446 5.29487 45.3539 5.32336 45.0585 5.38034C44.7723 5.42783 44.5139 5.50855 44.2831 5.62251C44.0616 5.72697 43.877 5.85518 43.7293 6.00712C43.5908 6.15907 43.5216 6.33476 43.5216 6.53419C43.5216 6.70513 43.5816 6.85233 43.7016 6.97578C43.8308 7.09924 43.9831 7.2227 44.1585 7.34615C44.3431 7.46961 44.5416 7.60731 44.7539 7.75926C44.9754 7.90171 45.1739 8.07265 45.3492 8.27208C45.5339 8.47151 45.6862 8.71368 45.8062 8.99858C45.9354 9.28348 46 9.6301 46 10.0385C46 10.6462 45.8892 11.1686 45.6677 11.6054C45.4554 12.0328 45.16 12.3889 44.7816 12.6738C44.4123 12.9492 43.9785 13.1534 43.4801 13.2863C42.9816 13.4193 42.4555 13.4858 41.9016 13.4858V11.7051C42.0678 11.7051 42.2847 11.6766 42.5524 11.6197C42.8201 11.5627 43.0785 11.4677 43.3278 11.3348C43.5862 11.2018 43.8078 11.0261 43.9924 10.8077C44.177 10.5893 44.2647 10.3186 44.2554 9.99573C44.2554 9.83428 44.1954 9.69658 44.0754 9.58262C43.9554 9.45916 43.8031 9.34046 43.6185 9.2265C43.4431 9.10304 43.2539 8.97483 43.0508 8.84188C42.8478 8.69943 42.6539 8.52849 42.4693 8.32906C42.2939 8.12013 42.1463 7.87322 42.0263 7.58832C41.9155 7.30342 41.8601 6.95204 41.8601 6.53419C41.8601 6.09734 41.9801 5.69373 42.2201 5.32336C42.4693 4.95299 42.7878 4.63485 43.1755 4.36895C43.5631 4.10304 43.997 3.89411 44.477 3.74217C44.9662 3.59022 45.4508 3.51424 45.9308 3.51424Z" fill="#FAFAFA"/>
<path d="M53.7044 3.51424L55.1428 13.4858H53.4195L53.2295 11.9473H51.8997L51.6962 13.4858H50L51.4248 3.51424H53.7044ZM53.0531 10.3519L52.5646 6.16382L52.1032 10.3519H53.0531Z" fill="#FAFAFA"/>
<path d="M56.8121 3.5C57.2463 3.5 57.6217 3.58547 57.9384 3.75641C58.255 3.92735 58.5264 4.15527 58.7525 4.44017C58.9787 4.72507 59.1641 5.05746 59.3089 5.43732C59.4536 5.80769 59.5667 6.19231 59.6481 6.59117C59.7295 6.99003 59.7838 7.39364 59.8109 7.80199C59.8471 8.20085 59.8652 8.57123 59.8652 8.91311C59.8652 9.67284 59.7883 10.3139 59.6345 10.8362C59.4898 11.3585 59.2998 11.7858 59.0646 12.1182C58.8385 12.4506 58.5987 12.7118 58.3454 12.9017C57.8931 13.2341 57.382 13.424 56.8121 13.4715H55.1431L55.1702 3.5H56.8121ZM56.8392 11.9615C56.8392 11.9615 56.8709 11.9568 56.9342 11.9473C56.9976 11.9378 57.079 11.9046 57.1785 11.8476C57.287 11.7811 57.4001 11.6814 57.5177 11.5484C57.6444 11.4155 57.7574 11.2255 57.8569 10.9786C57.9655 10.7317 58.0514 10.4231 58.1148 10.0527C58.1871 9.67284 58.2233 9.2075 58.2233 8.6567C58.2233 8.51425 58.2188 8.32906 58.2097 8.10114C58.2007 7.87322 58.1781 7.63105 58.1419 7.37464C58.1148 7.11823 58.0695 6.86182 58.0062 6.60541C57.9429 6.349 57.8569 6.11633 57.7484 5.90741C57.6489 5.69848 57.5222 5.53229 57.3684 5.40883C57.2147 5.27588 57.0292 5.2094 56.8121 5.2094L56.8392 11.9615Z" fill="#FAFAFA"/>
<path d="M62.0647 3.51424L62.8246 9.52564L63.6252 3.51424H65.3349L63.8287 13.4858H61.8204L60.3007 3.51424H62.0647Z" fill="#FAFAFA"/>
<path d="M65.4422 13.4858V3.51424H68.631V5.28063H67.1926V7.53134H68.6445V9.38319H67.1112V11.6339H68.6581V13.4858H65.4422Z" fill="#FAFAFA"/>
<path d="M69.1778 13.4858V3.51424H70.8739L72.3258 8.67094V3.51424H74.0627V13.4858H72.3258L70.8604 8.72792V13.5L69.1778 13.4858Z" fill="#FAFAFA"/>
<path d="M79.7848 3.51424V5.32336H78.0751V13.4858H76.4061V5.32336H74.5742V3.51424H79.7848Z" fill="#FAFAFA"/>
<path d="M85.6911 8.55698C85.6911 8.88936 85.6865 9.24549 85.6775 9.62536C85.6775 9.99573 85.6549 10.3661 85.6096 10.7365C85.5735 11.0973 85.5056 11.444 85.4061 11.7764C85.3066 12.1087 85.1573 12.4031 84.9583 12.6595C84.7683 12.9065 84.5196 13.1059 84.212 13.2578C83.9044 13.4098 83.5245 13.4858 83.0722 13.4858C82.448 13.4858 81.9595 13.3718 81.6067 13.1439C81.2629 12.916 81.0051 12.5931 80.8333 12.1752C80.6704 11.7479 80.5709 11.235 80.5347 10.6368C80.5076 10.0385 80.494 9.37369 80.494 8.64245V3.5H82.163V8.55698C82.1721 9.14577 82.2083 9.66809 82.2716 10.1239C82.2987 10.3234 82.3349 10.518 82.3801 10.708C82.4254 10.8884 82.4797 11.0546 82.543 11.2066C82.6154 11.349 82.6922 11.4677 82.7737 11.5627C82.8641 11.6481 82.9636 11.6909 83.0722 11.6909C83.2079 11.6909 83.321 11.6481 83.4114 11.5627C83.5109 11.4677 83.5923 11.349 83.6557 11.2066C83.728 11.0546 83.7823 10.8884 83.8185 10.708C83.8637 10.518 83.8999 10.3234 83.9271 10.1239C83.9813 9.66809 84.0039 9.14577 83.9949 8.55698V3.51424H85.6911V8.55698Z" fill="#FAFAFA"/>
<path d="M88.04 3.51424C88.3567 3.51424 88.6552 3.56648 88.9356 3.67094C89.2251 3.7754 89.4829 3.9416 89.7091 4.16952C89.9352 4.38794 90.1207 4.67284 90.2654 5.02422C90.4192 5.37559 90.5187 5.80294 90.5639 6.30627C90.6272 6.92355 90.6091 7.44112 90.5096 7.85897C90.4192 8.26733 90.3061 8.59497 90.1704 8.84188C90.0166 9.14577 89.8312 9.38319 89.6141 9.55413L90.7403 13.4858H89.0035L88.1757 10.1382L87.7958 10.2094V13.4858H86.0861L86.0996 3.51424H88.04ZM87.7958 8.44302C88.0038 8.42403 88.1757 8.3718 88.3114 8.28632C88.4471 8.19136 88.5602 8.07265 88.6507 7.9302C88.7411 7.78775 88.8044 7.62631 88.8406 7.44587C88.8768 7.26543 88.8949 7.08025 88.8949 6.89031C88.8949 6.69088 88.8768 6.4962 88.8406 6.30627C88.8044 6.10684 88.7456 5.93115 88.6642 5.7792C88.5828 5.61776 88.4697 5.48955 88.325 5.39459C88.1893 5.29962 88.0129 5.25214 87.7958 5.25214V8.44302Z" fill="#FAFAFA"/>
<path d="M90.275 13.4858V3.51424H93.4638V5.28063H92.0255V7.53134H93.4774V9.38319H91.9441V11.6339H93.491V13.4858H90.275Z" fill="#FAFAFA"/>
<path d="M97.9322 3.51424C97.9412 3.51424 97.9457 3.60921 97.9457 3.79915C97.9457 3.97958 97.9457 4.17901 97.9457 4.39744C97.9457 4.66334 97.9412 4.96249 97.9322 5.29487C97.6517 5.29487 97.3668 5.32336 97.0773 5.38034C96.7969 5.42783 96.5436 5.50855 96.3174 5.62251C96.1003 5.72697 95.9194 5.85518 95.7746 6.00712C95.6389 6.15907 95.5711 6.33476 95.5711 6.53419C95.5711 6.70513 95.6299 6.85233 95.7475 6.97578C95.8741 7.09924 96.0234 7.2227 96.1953 7.34615C96.3762 7.46961 96.5707 7.60731 96.7788 7.75926C96.9959 7.90171 97.1904 8.07265 97.3622 8.27208C97.5432 8.47151 97.6924 8.71368 97.81 8.99858C97.9367 9.28348 98 9.6301 98 10.0385C98 10.6462 97.8914 11.1686 97.6743 11.6054C97.4663 12.0328 97.1768 12.3889 96.8059 12.6738C96.4441 12.9492 96.0189 13.1534 95.5304 13.2863C95.0419 13.4193 94.5263 13.4858 93.9835 13.4858V11.7051C94.1463 11.7051 94.3589 11.6766 94.6212 11.6197C94.8836 11.5627 95.1369 11.4677 95.3811 11.3348C95.6344 11.2018 95.8515 11.0261 96.0325 10.8077C96.2134 10.5893 96.2993 10.3186 96.2903 9.99573C96.2903 9.83428 96.2315 9.69658 96.1139 9.58262C95.9963 9.45916 95.847 9.34046 95.6661 9.2265C95.4942 9.10304 95.3088 8.97483 95.1097 8.84188C94.9107 8.69943 94.7208 8.52849 94.5398 8.32906C94.368 8.12013 94.2232 7.87322 94.1056 7.58832C93.9971 7.30342 93.9428 6.95204 93.9428 6.53419C93.9428 6.09734 94.0604 5.69373 94.2956 5.32336C94.5398 4.95299 94.8519 4.63485 95.2319 4.36895C95.6118 4.10304 96.037 3.89411 96.5074 3.74217C96.9868 3.59022 97.4618 3.51424 97.9322 3.51424Z" fill="#FAFAFA"/>
<path fill-rule="evenodd" clip-rule="evenodd" d="M97 1.5H51V0.5H97V1.5Z" fill="#FAFAFA"/>
<path fill-rule="evenodd" clip-rule="evenodd" d="M97 15.5H51V14.5H97V15.5Z" fill="#FAFAFA"/>
</svg>
