<svg aria-hidden="true" style="position: absolute; width: 0; height: 0; overflow: hidden;" version="1.1"
    xmlns="http://www.w3.org/2000/svg" xmlns:xlink="http://www.w3.org/1999/xlink">
    <defs>
        <symbol id="icon-arrow-blue" viewBox="0 0 32 32">
            <path fill="#34387f" style="fill: var(--color1, #34387f); stroke: var(--color1, #34387f)" stroke="#34387f"
                stroke-linejoin="miter" stroke-linecap="butt" stroke-miterlimit="4" stroke-width="0.4706"
                d="M27.453 7.096l-23.963 23.963-2.549-2.549 23.963-23.963h-23.963v-3.605h30.118v30.118h-3.605v-23.963z">
            </path>
        </symbol>
        <symbol id="icon-arrow-left" viewBox="0 0 48 32">
            <path fill="#fafafa" style="fill: var(--color2, #fafafa)" opacity="0.3"
                d="M0.382 15.131l15.566-14.771c0.506-0.48 1.328-0.48 1.834 0s0.506 1.26 0 1.741l-13.351 12.669h42.271c0.716 0 1.297 0.551 1.297 1.231s-0.581 1.231-1.297 1.231l-42.271-0 13.351 12.669c0.506 0.48 0.506 1.261 0 1.741-0.254 0.241-0.586 0.359-0.918 0.359s-0.664-0.121-0.918-0.359l-15.566-14.771c-0.506-0.48-0.506-1.26 0-1.741l0.003 0.002z">
            </path>
        </symbol>
        <symbol id="icon-arrow-pagination-left" viewBox="0 0 24 32">
            <path fill="#fafafa" style="fill: var(--color2, #fafafa)" opacity="0.3"
                d="M21.76 3.76l-12.213 12.24 12.213 12.24-3.76 3.76-16-16 16-16 3.76 3.76z"></path>
        </symbol>
        <symbol id="icon-arrow-pagination-right" viewBox="0 0 24 32">
            <path fill="#fafafa" style="fill: var(--color2, #fafafa)"
                d="M2.24 3.76l12.213 12.24-12.213 12.24 3.76 3.76 16-16-16-16-3.76 3.76z"></path>
        </symbol>
        <symbol id="icon-arrow-right" viewBox="0 0 48 32">
            <path fill="#fafafa" style="fill: var(--color2, #fafafa)"
                d="M47.618 16.869l-15.566 14.771c-0.506 0.48-1.328 0.48-1.834 0s-0.506-1.261 0-1.741l13.351-12.669h-42.271c-0.716 0-1.297-0.551-1.297-1.231s0.581-1.231 1.297-1.231l42.271 0-13.351-12.669c-0.506-0.48-0.506-1.26 0-1.741 0.254-0.241 0.586-0.359 0.918-0.359s0.664 0.121 0.918 0.359l15.566 14.771c0.506 0.48 0.506 1.26 0 1.741l-0.003-0.002z">
            </path>
        </symbol>
        <symbol id="icon-arrow-select" viewBox="0 0 32 32">
            <path fill="none" stroke="#fafafa" style="stroke: var(--color2, #fafafa)" stroke-linejoin="round"
                stroke-linecap="round" stroke-miterlimit="4" stroke-width="3.5556" d="M8 12l8 8 8-8"></path>
        </symbol>
        <symbol id="icon-close" viewBox="0 0 32 32">
            <path fill="none" stroke="#fafafa" style="stroke: var(--color2, #fafafa)" stroke-linejoin="round"
                stroke-linecap="round" stroke-miterlimit="4" stroke-width="4" d="M2 2l28 28"></path>
        </symbol>
        <symbol id="facebook" viewBox="0 0 18 32">
            <path fill="#fafafa" style="fill: var(--color2, #fafafa)"
                d="M14.45 5.602h2.924v-4.947c-1.416-0.147-2.839-0.22-4.262-0.218-4.231 0-7.124 2.582-7.124 7.311v4.076h-4.776v5.538h4.776v14.187h5.724v-14.187h4.76l0.716-5.538h-5.476v-3.531c0-1.633 0.436-2.691 2.738-2.691z">
            </path>
        </symbol>
        <symbol id="istagram" viewBox="0 0 32 32">
            <path fill="#fafafa" style="fill: var(--color2, #fafafa)"
                d="M23.983 6.229c-0.354 0-0.701 0.105-0.996 0.302s-0.524 0.477-0.66 0.804c-0.136 0.327-0.171 0.688-0.102 1.035s0.24 0.667 0.491 0.918c0.251 0.251 0.57 0.421 0.917 0.49s0.708 0.034 1.035-0.102c0.328-0.136 0.607-0.365 0.804-0.66s0.302-0.641 0.302-0.996c0-0.475-0.189-0.931-0.525-1.267s-0.792-0.525-1.267-0.525zM30.852 9.843c-0.029-1.239-0.261-2.465-0.687-3.629-0.38-0.996-0.971-1.898-1.732-2.643-0.739-0.765-1.643-1.353-2.643-1.717-1.161-0.439-2.388-0.676-3.629-0.702-1.583-0.090-2.091-0.090-6.152-0.090s-4.57 0-6.152 0.090c-1.241 0.026-2.468 0.263-3.629 0.702-0.998 0.368-1.901 0.955-2.643 1.717-0.765 0.739-1.353 1.643-1.717 2.643-0.439 1.161-0.676 2.388-0.702 3.629-0.090 1.583-0.090 2.091-0.090 6.153s0 4.57 0.090 6.152c0.026 1.241 0.263 2.468 0.702 3.629 0.365 1 0.952 1.904 1.717 2.643 0.742 0.762 1.645 1.349 2.643 1.717 1.161 0.439 2.388 0.676 3.629 0.702 1.583 0.090 2.091 0.090 6.152 0.090s4.57 0 6.152-0.090c1.241-0.026 2.468-0.263 3.629-0.702 1-0.365 1.904-0.952 2.643-1.717 0.765-0.743 1.356-1.645 1.732-2.643 0.426-1.164 0.658-2.39 0.687-3.629 0-1.583 0.090-2.091 0.090-6.152s0-4.57-0.090-6.153zM28.164 21.969c-0.011 0.948-0.183 1.887-0.508 2.778-0.238 0.65-0.621 1.237-1.12 1.717-0.484 0.493-1.070 0.876-1.717 1.12-0.891 0.325-1.83 0.497-2.778 0.508-1.493 0.075-2.046 0.090-5.973 0.090s-4.48 0-5.973-0.090c-0.984 0.018-1.964-0.133-2.897-0.448-0.619-0.257-1.178-0.638-1.643-1.12-0.496-0.48-0.874-1.068-1.105-1.717-0.365-0.903-0.567-1.864-0.597-2.837 0-1.493-0.090-2.046-0.090-5.973s0-4.48 0.090-5.973c0.007-0.969 0.184-1.929 0.523-2.837 0.263-0.63 0.666-1.192 1.18-1.643 0.454-0.513 1.014-0.921 1.643-1.195 0.91-0.328 1.87-0.5 2.837-0.508 1.493 0 2.046-0.090 5.973-0.090s4.48 0 5.973 0.090c0.948 0.011 1.887 0.183 2.778 0.508 0.679 0.252 1.288 0.661 1.777 1.195 0.489 0.459 0.872 1.020 1.12 1.643 0.332 0.909 0.504 1.869 0.508 2.837 0.075 1.493 0.090 2.046 0.090 5.973s-0.015 4.48-0.090 5.973zM16.008 8.335c-1.514 0.003-2.994 0.455-4.252 1.298s-2.237 2.041-2.815 3.441c-0.578 1.4-0.727 2.94-0.43 4.425s1.028 2.849 2.1 3.919c1.072 1.070 2.437 1.798 3.923 2.092s3.025 0.142 4.424-0.439c1.399-0.58 2.595-1.562 3.436-2.822s1.29-2.74 1.29-4.255c0.002-1.008-0.195-2.006-0.58-2.937s-0.951-1.777-1.664-2.489c-0.713-0.712-1.56-1.276-2.492-1.659s-1.931-0.579-2.939-0.575zM16.008 20.969c-0.983 0-1.945-0.292-2.763-0.838s-1.455-1.323-1.832-2.232c-0.376-0.909-0.475-1.909-0.283-2.873s0.665-1.851 1.361-2.546c0.695-0.695 1.582-1.169 2.546-1.361s1.965-0.093 2.873 0.283 1.685 1.014 2.232 1.832c0.546 0.818 0.838 1.779 0.838 2.763 0 0.653-0.129 1.3-0.379 1.903s-0.616 1.152-1.078 1.613c-0.462 0.462-1.010 0.828-1.613 1.078s-1.25 0.379-1.903 0.379z">
            </path>
        </symbol>
        <symbol id="twitter" viewBox="0 0 32 32">
            <path fill="none" stroke="#fafafa" style="stroke: var(--color2, #fafafa)" stroke-linejoin="round"
                stroke-linecap="round" stroke-miterlimit="4" stroke-width="3.2"
                d="M30.667 4c-1.277 0.901-2.691 1.589-4.187 2.040-0.803-0.923-1.87-1.578-3.057-1.875s-2.437-0.222-3.58 0.214c-1.143 0.436-2.125 1.213-2.812 2.226s-1.047 2.211-1.031 3.435v1.333c-2.343 0.061-4.665-0.459-6.759-1.513s-4.339-3.563-5.686-5.481c0 0-4.889 12.954 7.111 18.287-2.746 1.864-6.017 2.799-9.333 2.667 12 6.667 26.667 0 26.667-15.333-0.001-0.371-0.037-0.742-0.107-1.107 1.361-1.342 2.321-3.036 2.773-4.893z">
            </path>
        </symbol>
        <symbol id="icon-logo-svg" viewBox="0 0 202 32">
            <path fill="#ed1d24" style="fill: var(--color3, #ed1d24)" d="M0 0.5h98v31h-98v-31z"></path>
            <path fill="#fafafa" style="fill: var(--color2, #fafafa)"
                d="M4.336 26.5v-19.6h4.48l1.624 10.080 1.596-10.080h4.564v19.628h-3.64v-9.464l-1.596 9.436h-1.876l-1.596-9.352v9.352h-3.556z">
            </path>
            <path fill="#fafafa" style="fill: var(--color2, #fafafa)"
                d="M24.499 6.9l2.968 19.6h-3.556l-0.392-3.024h-2.744l-0.42 3.024h-3.5l2.94-19.6h4.704zM23.155 20.34l-1.008-8.232-0.952 8.232h1.96z">
            </path>
            <path fill="#fafafa" style="fill: var(--color2, #fafafa)"
                d="M31.611 6.9c0.653 0 1.269 0.103 1.848 0.308 0.597 0.205 1.129 0.532 1.596 0.98 0.467 0.429 0.849 0.989 1.148 1.68 0.317 0.691 0.523 1.531 0.616 2.52 0.131 1.213 0.093 2.231-0.112 3.052-0.187 0.803-0.42 1.447-0.7 1.932-0.317 0.597-0.7 1.064-1.148 1.4l2.324 7.728h-3.584l-1.708-6.58-0.784 0.14v6.44h-3.528l0.028-19.6h4.004zM31.107 16.588c0.429-0.037 0.784-0.14 1.064-0.308 0.28-0.187 0.513-0.42 0.7-0.7s0.317-0.597 0.392-0.952c0.075-0.355 0.112-0.719 0.112-1.092 0-0.392-0.037-0.775-0.112-1.148-0.075-0.392-0.196-0.737-0.364-1.036-0.168-0.317-0.401-0.569-0.7-0.756-0.28-0.187-0.644-0.28-1.092-0.28v6.272z">
            </path>
            <path fill="#fafafa" style="fill: var(--color2, #fafafa)"
                d="M39.863 6.9l1.568 11.816 1.652-11.816h3.528l-3.108 19.6h-4.144l-3.136-19.6h3.64z"></path>
            <path fill="#fafafa" style="fill: var(--color2, #fafafa)"
                d="M46.833 26.5v-19.6h6.58v3.472h-2.968v4.424h2.996v3.64h-3.164v4.424h3.192v3.64h-6.636z"></path>
            <path fill="#fafafa" style="fill: var(--color2, #fafafa)"
                d="M58.041 6.872v16.1h3.024v3.556h-6.496v-19.628l3.472-0.028z"></path>
            <path fill="#fafafa" style="fill: var(--color2, #fafafa)"
                d="M61.925 16.7c0-1.475 0.131-2.809 0.392-4.004 0.261-1.213 0.625-2.249 1.092-3.108s1.036-1.521 1.708-1.988 1.409-0.7 2.212-0.7c0.803 0 1.531 0.233 2.184 0.7 0.672 0.467 1.241 1.129 1.708 1.988s0.831 1.895 1.092 3.108c0.261 1.195 0.392 2.529 0.392 4.004s-0.131 2.819-0.392 4.032c-0.261 1.195-0.625 2.221-1.092 3.080s-1.036 1.521-1.708 1.988c-0.653 0.467-1.381 0.7-2.184 0.7s-1.54-0.233-2.212-0.7-1.241-1.129-1.708-1.988c-0.467-0.859-0.831-1.885-1.092-3.080-0.261-1.213-0.392-2.557-0.392-4.032zM65.397 16.756c0 0.933 0.047 1.783 0.14 2.548s0.224 1.428 0.392 1.988c0.168 0.541 0.364 0.961 0.588 1.26 0.243 0.299 0.504 0.448 0.784 0.448s0.532-0.149 0.756-0.448c0.243-0.299 0.439-0.719 0.588-1.26 0.168-0.56 0.299-1.223 0.392-1.988s0.14-1.615 0.14-2.548-0.047-1.783-0.14-2.548c-0.093-0.784-0.224-1.447-0.392-1.988-0.149-0.541-0.345-0.961-0.588-1.26-0.224-0.299-0.476-0.448-0.756-0.448s-0.541 0.149-0.784 0.448c-0.224 0.299-0.42 0.719-0.588 1.26s-0.299 1.204-0.392 1.988c-0.093 0.765-0.14 1.615-0.14 2.548z">
            </path>
            <path fill="#fafafa" style="fill: var(--color2, #fafafa)"
                d="M84.241 16.812c0 0.653-0.009 1.353-0.028 2.1 0 0.728-0.047 1.456-0.14 2.184-0.075 0.709-0.215 1.391-0.42 2.044s-0.513 1.232-0.924 1.736c-0.392 0.485-0.905 0.877-1.54 1.176s-1.419 0.448-2.352 0.448c-1.288 0-2.296-0.224-3.024-0.672-0.709-0.448-1.241-1.083-1.596-1.904-0.336-0.84-0.541-1.848-0.616-3.024-0.056-1.176-0.084-2.483-0.084-3.92v-10.108h3.444v9.94c0.019 1.157 0.093 2.184 0.224 3.080 0.056 0.392 0.131 0.775 0.224 1.148 0.093 0.355 0.205 0.681 0.336 0.98 0.149 0.28 0.308 0.513 0.476 0.7 0.187 0.168 0.392 0.252 0.616 0.252 0.28 0 0.513-0.084 0.7-0.252 0.205-0.187 0.373-0.42 0.504-0.7 0.149-0.299 0.261-0.625 0.336-0.98 0.093-0.373 0.168-0.756 0.224-1.148 0.112-0.896 0.159-1.923 0.14-3.080v-9.912h3.5v9.912z">
            </path>
            <path fill="#fafafa" style="fill: var(--color2, #fafafa)"
                d="M93.176 6.9c0.019 0 0.028 0.187 0.028 0.56 0 0.355 0 0.747 0 1.176 0 0.523-0.009 1.111-0.028 1.764-0.579 0-1.167 0.056-1.764 0.168-0.579 0.093-1.101 0.252-1.568 0.476-0.448 0.205-0.821 0.457-1.12 0.756-0.28 0.299-0.42 0.644-0.42 1.036 0 0.336 0.121 0.625 0.364 0.868 0.261 0.243 0.569 0.485 0.924 0.728 0.373 0.243 0.775 0.513 1.204 0.812 0.448 0.28 0.849 0.616 1.204 1.008 0.373 0.392 0.681 0.868 0.924 1.428 0.261 0.56 0.392 1.241 0.392 2.044 0 1.195-0.224 2.221-0.672 3.080-0.429 0.84-1.027 1.54-1.792 2.1-0.747 0.541-1.624 0.943-2.632 1.204s-2.072 0.392-3.192 0.392v-3.5c0.336 0 0.775-0.056 1.316-0.168s1.064-0.299 1.568-0.56c0.523-0.261 0.971-0.607 1.344-1.036s0.551-0.961 0.532-1.596c0-0.317-0.121-0.588-0.364-0.812-0.243-0.243-0.551-0.476-0.924-0.7-0.355-0.243-0.737-0.495-1.148-0.756-0.411-0.28-0.803-0.616-1.176-1.008-0.355-0.411-0.653-0.896-0.896-1.456-0.224-0.56-0.336-1.251-0.336-2.072 0-0.859 0.243-1.652 0.728-2.38 0.504-0.728 1.148-1.353 1.932-1.876s1.661-0.933 2.632-1.232c0.989-0.299 1.969-0.448 2.94-0.448z">
            </path>
            <path fill="#fafafa" style="fill: var(--color2, #fafafa)"
                d="M109.784 6.9l2.968 19.6h-3.556l-0.392-3.024h-2.744l-0.42 3.024h-3.5l2.94-19.6h4.704zM108.44 20.34l-1.008-8.232-0.952 8.232h1.96z">
            </path>
            <path fill="#fafafa" style="fill: var(--color2, #fafafa)"
                d="M116.197 6.872c0.896 0 1.67 0.168 2.324 0.504s1.213 0.784 1.68 1.344c0.466 0.56 0.849 1.213 1.148 1.96 0.298 0.728 0.532 1.484 0.7 2.268s0.28 1.577 0.336 2.38c0.074 0.784 0.112 1.512 0.112 2.184 0 1.493-0.159 2.753-0.476 3.78-0.299 1.027-0.691 1.867-1.176 2.52-0.467 0.653-0.962 1.167-1.484 1.54-0.934 0.653-1.988 1.027-3.164 1.12h-3.444l0.056-19.6h3.388zM116.253 23.504c0 0 0.065-0.009 0.196-0.028 0.13-0.019 0.298-0.084 0.504-0.196 0.224-0.131 0.457-0.327 0.7-0.588 0.261-0.261 0.494-0.635 0.7-1.12 0.224-0.485 0.401-1.092 0.532-1.82 0.149-0.747 0.224-1.661 0.224-2.744 0-0.28-0.010-0.644-0.028-1.092-0.019-0.448-0.066-0.924-0.14-1.428-0.056-0.504-0.15-1.008-0.28-1.512-0.131-0.504-0.308-0.961-0.532-1.372-0.206-0.411-0.467-0.737-0.784-0.98-0.318-0.261-0.7-0.392-1.148-0.392l0.056 13.272z">
            </path>
            <path fill="#fafafa" style="fill: var(--color2, #fafafa)"
                d="M127.035 6.9l1.568 11.816 1.652-11.816h3.528l-3.108 19.6h-4.144l-3.136-19.6h3.64z"></path>
            <path fill="#fafafa" style="fill: var(--color2, #fafafa)"
                d="M134.005 26.5v-19.6h6.58v3.472h-2.968v4.424h2.996v3.64h-3.164v4.424h3.192v3.64h-6.636z"></path>
            <path fill="#fafafa" style="fill: var(--color2, #fafafa)"
                d="M141.713 26.5v-19.6h3.5l2.996 10.136v-10.136h3.584v19.6h-3.584l-3.024-9.352v9.38l-3.472-0.028z">
            </path>
            <path fill="#fafafa" style="fill: var(--color2, #fafafa)"
                d="M163.601 6.9v3.556h-3.528v16.044h-3.444v-16.044h-3.78v-3.556h10.752z"></path>
            <path fill="#fafafa" style="fill: var(--color2, #fafafa)"
                d="M175.788 16.812c0 0.653-0.009 1.353-0.028 2.1 0 0.728-0.047 1.456-0.14 2.184-0.075 0.709-0.215 1.391-0.42 2.044s-0.513 1.232-0.924 1.736c-0.392 0.485-0.905 0.877-1.54 1.176s-1.419 0.448-2.352 0.448c-1.288 0-2.296-0.224-3.024-0.672-0.709-0.448-1.241-1.083-1.596-1.904-0.336-0.84-0.541-1.848-0.616-3.024-0.056-1.176-0.084-2.483-0.084-3.92v-10.108h3.444v9.94c0.019 1.157 0.093 2.184 0.224 3.080 0.056 0.392 0.131 0.775 0.224 1.148 0.093 0.355 0.205 0.681 0.336 0.98 0.149 0.28 0.308 0.513 0.476 0.7 0.187 0.168 0.392 0.252 0.616 0.252 0.28 0 0.513-0.084 0.7-0.252 0.205-0.187 0.373-0.42 0.504-0.7 0.149-0.299 0.261-0.625 0.336-0.98 0.093-0.373 0.168-0.756 0.224-1.148 0.112-0.896 0.159-1.923 0.14-3.080v-9.912h3.5v9.912z">
            </path>
            <path fill="#fafafa" style="fill: var(--color2, #fafafa)"
                d="M180.635 6.9c0.653 0 1.269 0.103 1.848 0.308 0.597 0.205 1.129 0.532 1.596 0.98 0.467 0.429 0.849 0.989 1.148 1.68 0.317 0.691 0.523 1.531 0.616 2.52 0.131 1.213 0.093 2.231-0.112 3.052-0.187 0.803-0.42 1.447-0.7 1.932-0.317 0.597-0.7 1.064-1.148 1.4l2.324 7.728h-3.584l-1.708-6.58-0.784 0.14v6.44h-3.528l0.028-19.6h4.004zM180.131 16.588c0.429-0.037 0.784-0.14 1.064-0.308 0.28-0.187 0.513-0.42 0.7-0.7s0.317-0.597 0.392-0.952c0.075-0.355 0.112-0.719 0.112-1.092 0-0.392-0.037-0.775-0.112-1.148-0.075-0.392-0.196-0.737-0.364-1.036-0.168-0.317-0.401-0.569-0.7-0.756-0.28-0.187-0.644-0.28-1.092-0.28v6.272z">
            </path>
            <path fill="#fafafa" style="fill: var(--color2, #fafafa)"
                d="M185.247 26.5v-19.6h6.58v3.472h-2.968v4.424h2.996v3.64h-3.164v4.424h3.192v3.64h-6.636z"></path>
            <path fill="#fafafa" style="fill: var(--color2, #fafafa)"
                d="M201.047 6.9c0.019 0 0.028 0.187 0.028 0.56 0 0.355 0 0.747 0 1.176 0 0.523-0.009 1.111-0.028 1.764-0.578 0-1.166 0.056-1.764 0.168-0.578 0.093-1.101 0.252-1.568 0.476-0.448 0.205-0.821 0.457-1.12 0.756-0.28 0.299-0.42 0.644-0.42 1.036 0 0.336 0.122 0.625 0.364 0.868 0.262 0.243 0.57 0.485 0.924 0.728 0.374 0.243 0.775 0.513 1.204 0.812 0.448 0.28 0.85 0.616 1.204 1.008 0.374 0.392 0.682 0.868 0.924 1.428 0.262 0.56 0.392 1.241 0.392 2.044 0 1.195-0.224 2.221-0.672 3.080-0.429 0.84-1.026 1.54-1.792 2.1-0.746 0.541-1.624 0.943-2.632 1.204s-2.072 0.392-3.192 0.392v-3.5c0.336 0 0.775-0.056 1.316-0.168 0.542-0.112 1.064-0.299 1.568-0.56 0.523-0.261 0.971-0.607 1.344-1.036 0.374-0.429 0.551-0.961 0.532-1.596 0-0.317-0.121-0.588-0.364-0.812-0.242-0.243-0.55-0.476-0.924-0.7-0.354-0.243-0.737-0.495-1.148-0.756-0.41-0.28-0.802-0.616-1.176-1.008-0.354-0.411-0.653-0.896-0.896-1.456-0.224-0.56-0.336-1.251-0.336-2.072 0-0.859 0.243-1.652 0.728-2.38 0.504-0.728 1.148-1.353 1.932-1.876s1.662-0.933 2.632-1.232c0.99-0.299 1.97-0.448 2.94-0.448z">
            </path>
            <path fill="none" stroke="#fafafa" style="stroke: var(--color2, #fafafa)" stroke-linejoin="miter"
                stroke-linecap="butt" stroke-miterlimit="4" stroke-width="1" d="M104 1.5h96"></path>
            <path fill="none" stroke="#fafafa" style="stroke: var(--color2, #fafafa)" stroke-linejoin="miter"
                stroke-linecap="butt" stroke-miterlimit="4" stroke-width="1" d="M104 31.5h96"></path>
        </symbol>
        <symbol id="icon-search" viewBox="0 0 32 32">
            <path fill="none" stroke="#fafafa" style="stroke: var(--color2, #fafafa)" stroke-linejoin="round"
                stroke-linecap="round" stroke-miterlimit="4" stroke-width="3.5556"
                d="M14.667 25.333c5.891 0 10.667-4.776 10.667-10.667s-4.776-10.667-10.667-10.667c-5.891 0-10.667 4.776-10.667 10.667s4.776 10.667 10.667 10.667z">
            </path>
            <path fill="none" stroke="#fafafa" style="stroke: var(--color2, #fafafa)" stroke-linejoin="round"
                stroke-linecap="round" stroke-miterlimit="4" stroke-width="3.5556" d="M28 28l-5.8-5.8"></path>
        </symbol>
    </defs>
</svg>